<?xml version="1.0" encoding="utf-8"?>
<!-- Generator: Adobe Illustrator 21.0.2, SVG Export Plug-In . SVG Version: 6.00 Build 0)  -->
<svg version="1.1" id="Layer_1" xmlns="http://www.w3.org/2000/svg" xmlns:xlink="http://www.w3.org/1999/xlink" x="0px" y="0px"
	 viewBox="0 0 233 15" style="enable-background:new 0 0 233 15;" xml:space="preserve">
<style type="text/css">
	.st0{fill:#0093CD;}
	.st1{fill:none;stroke:#000000;stroke-width:0.5;stroke-miterlimit:10;}
</style>
<polygon class="st0" points="0,14.9 0,12.3 2.1,12.3 2.1,2.6 0,2.6 0,0 4.8,0 4.8,12.3 6.9,12.3 6.9,14.9 "/>
<path class="st0" d="M18.1,14.9h-2.7c-2.2,0-4-1.8-4-4V4c0-2.2,1.8-4,4-4h2.7c2.2,0,4,1.8,4,4v6.9C22.1,13.1,20.3,14.9,18.1,14.9
	 M19.3,3.8c0-0.6-0.5-1.1-1.1-1.1h-3c-0.6,0-1.1,0.5-1.1,1.1V11c0,0.6,0.5,1.1,1.1,1.1h3c0.6,0,1.1-0.5,1.1-1.1V3.8z"/>
<path class="st0" d="M33.2,14.9h-2.7c-2.2,0-4-1.8-4-4V4c0-2.2,1.8-4,4-4h2.7c2.2,0,4,1.8,4,4v6.9C37.2,13.1,35.4,14.9,33.2,14.9
	 M34.5,3.8c0-0.6-0.5-1.1-1.1-1.1h-3c-0.6,0-1.1,0.5-1.1,1.1V11c0,0.6,0.5,1.1,1.1,1.1h3c0.6,0,1.1-0.5,1.1-1.1V3.8z"/>
<path class="st0" d="M175.9,4.2c0,0-0.1-0.3-0.1-0.4c-0.2-0.7-0.5-1-1.1-1h-3c-0.6,0-1.1,0.5-1.1,1.1V11c0,0.6,0.5,1.1,1.1,1.1h3
	c0.6,0,0.9-0.4,1.1-1.1c0-0.2,0.1-0.4,0.1-0.4l2.5,0.7c-0.2,2-1.9,3.5-3.9,3.5h-2.7c-2.2,0-4-1.8-4-4V4c0-2.2,1.8-4,4-4h2.7
	c2,0,3.7,1.5,4,3.5L175.9,4.2z"/>
<rect x="181.8" class="st0" width="2.7" height="14.9"/>
<polygon class="st0" points="194,2.7 194,14.9 191.3,14.9 191.3,2.7 187.3,2.7 187.3,0 198,0 198,2.7 "/>
<rect x="201.3" class="st0" width="2.7" height="14.9"/>
<polygon class="st0" points="208.5,14.9 208.5,0 219.2,0 219.2,2.7 211.2,2.7 211.2,5.9 217.3,5.9 217.3,8.6 211.2,8.6 211.2,12.2 
	219.2,12.2 219.2,14.9 "/>
<path class="st0" d="M230.5,4.2c0,0-0.1-0.3-0.1-0.4c-0.2-0.7-0.5-1-1.1-1h-3c-0.6,0-1.1,0.5-1.1,1.1v0.5c0,0.7,0.4,1.2,1.1,1.3
	c0.7,0.2,3.9,1,3.9,1c1.6,0.4,2.8,1.8,2.8,3.6v0.5c0,2.2-1.7,4-3.9,4h-2.7c-2,0-3.7-1.5-4-3.5l2.5-0.7c0,0,0.1,0.2,0.1,0.4
	c0.2,0.7,0.5,1.1,1.1,1.1h3c0.6,0,1.1-0.5,1.1-1.1v-0.7c0-0.5-0.3-0.9-0.7-1L224.9,8c-1.5-0.4-2.5-1.9-2.5-3.5V3.8
	c0-2.2,1.6-3.8,3.8-3.8h2.9c2,0,3.7,1.5,3.9,3.5L230.5,4.2z"/>
<path class="st1" d="M55.6,14.9l-2.7-6.1h-2.3v6.1H48V0h6.7c2.2,0,4,1.8,4,4v0.8c0,1.8-1.2,3.3-2.8,3.8l2.8,6.3L55.6,14.9L55.6,14.9
	z M55.9,3.8c0-0.6-0.5-1.1-1.1-1.1h-4.1v3.4h4.1c0.6,0,1.1-0.5,1.1-1.1C55.9,4.9,55.9,3.8,55.9,3.8z"/>
<polygon class="st1" points="62.1,14.9 62.1,0 72.8,0 72.8,2.7 64.8,2.7 64.8,5.9 70.9,5.9 70.9,8.6 64.8,8.6 64.8,12.2 72.8,12.2 
	72.8,14.9 "/>
<path class="st1" d="M84.1,4.2c0,0-0.1-0.3-0.1-0.4c-0.2-0.7-0.5-1-1.1-1h-3c-0.6,0-1.1,0.5-1.1,1.1v0.5c0,0.7,0.4,1.2,1.1,1.3
	c0.7,0.2,3.9,1,3.9,1c1.6,0.4,2.8,1.8,2.8,3.6v0.5c0,2.2-1.7,4-3.9,4h-2.7c-2,0-3.7-1.5-4-3.5l2.5-0.7c0,0,0.1,0.2,0.1,0.4
	c0.2,0.7,0.5,1.1,1.2,1.1h3c0.6,0,1.1-0.5,1.1-1.1v-0.7c0-0.5-0.3-0.9-0.7-1L78.5,8C77,7.6,76,6.1,76,4.5V3.8C76,1.6,77.6,0,79.8,0
	h2.9c2,0,3.7,1.5,3.9,3.5L84.1,4.2z"/>
<rect x="90.2" class="st1" width="2.7" height="14.9"/>
<polygon class="st1" points="97.4,14.9 97.4,0 100.1,0 100.1,12.2 108.1,12.2 108.1,14.9 "/>
<rect x="111.2" class="st1" width="2.7" height="14.9"/>
<polygon class="st1" points="118.4,14.9 118.4,0 129.1,0 129.1,2.7 121.1,2.7 121.1,5.9 127.2,5.9 127.2,8.6 121.1,8.6 121.1,12.2 
	129.1,12.2 129.1,14.9 "/>
<polygon class="st1" points="140.9,14.9 135.6,5.3 135.6,14.9 132.9,14.9 132.9,0 135.5,0 140.8,9.3 140.8,0 143.5,0 143.5,14.9 "/>
<polygon class="st1" points="153.1,2.7 153.1,14.9 150.4,14.9 150.4,2.7 146.4,2.7 146.4,0 157.1,0 157.1,2.7 "/>
</svg>
